<svg version="1.0" xmlns="http://www.w3.org/2000/svg"
 width="920.000000pt" height="518.000000pt" viewBox="0 0 920.000000 518.000000"
 preserveAspectRatio="xMidYMid meet">

<g transform="translate(0.000000,518.000000) scale(0.100000,-0.100000)"
fill="red" stroke="none">
<path d="M3545 5159 c-760 -20 -1371 -60 -1663 -110 -231 -39 -395 -115 -537
-251 -208 -197 -285 -406 -345 -937 -85 -754 -85 -1788 0 -2542 60 -531 137
-740 345 -937 142 -136 306 -212 537 -251 949 -161 4487 -161 5436 0 231 39
395 115 537 251 130 123 214 265 260 441 105 399 169 1325 145 2096 -26 825
-93 1361 -199 1595 -100 220 -309 410 -536 485 -253 84 -832 132 -1930 161
-420 11 -1615 11 -2050 -1z m1285 -2033 c509 -290 925 -531 925 -536 0 -7
-1747 -1009 -1877 -1076 l-28 -15 0 1091 0 1091 28 -15 c15 -8 443 -251 952
-540z"/>
</g>
</svg>
